<svg width="188" height="32" viewBox="0 0 188 32" fill="none" xmlns="http://www.w3.org/2000/svg">
<g clip-path="url(#clip0_65_1983)">
<mask id="mask0_65_1983" style="mask-type:luminance" maskUnits="userSpaceOnUse" x="0" y="0" width="188" height="32">
<path d="M188 0H0V32H188V0Z" fill="white"/>
</mask>
<g mask="url(#mask0_65_1983)">
<path d="M45.062 31.4512L34.3745 5.87646H39.4831L47.0557 24.4371L54.5914 5.87646H59.7L49.0111 31.4512H45.062Z" fill="#5C5C5C"/>
<path d="M58.3245 21.9525C58.3245 19.0666 59.2666 16.6908 61.1509 14.7922C63.0352 12.8935 65.4267 11.9062 68.2887 11.9062C71.1506 11.9062 73.5067 12.8563 75.4265 14.7922C77.3463 16.6922 78.2884 19.0666 78.2884 21.9525C78.2884 24.8384 77.3463 27.2141 75.4265 29.15C73.5067 31.0501 71.1506 32.0001 68.2887 32.0001C65.4267 32.0001 63.0707 31.0501 61.1509 29.15C59.2666 27.2141 58.3245 24.8384 58.3245 21.9525ZM62.9982 21.9525C62.9982 23.5229 63.5055 24.8025 64.5201 25.8615C65.5347 26.9204 66.8023 27.432 68.2887 27.432C69.7751 27.432 71.0426 26.9204 72.0572 25.8615C73.0718 24.8025 73.5791 23.5229 73.5791 21.9525C73.5791 20.382 73.0718 19.1025 72.0572 18.0436C71.0426 16.9846 69.7751 16.473 68.2887 16.473C66.8023 16.473 65.5347 16.9846 64.5201 18.0436C63.5055 19.1025 62.9982 20.382 62.9982 21.9525Z" fill="#5C5C5C"/>
<path d="M81.4048 31.4512V5.87646H85.9336V31.4512H81.4048Z" fill="#5C5C5C"/>
<path d="M88.2158 12.4536H90.8973V5.87646H95.4261V12.4521H100.1V16.4342H95.4261V24.8011C95.4261 26.1165 96.4038 27.1023 97.7452 27.1023H100.1V31.4498H97.3104C95.4986 31.4498 93.9766 30.8652 92.7446 29.7332C91.5126 28.6012 90.8973 27.1754 90.8973 25.4588V16.4342H88.2158V12.4521V12.4536Z" fill="#5C5C5C"/>
<path d="M107.419 14.7922C108.724 12.8563 110.789 11.9062 113.615 11.9062V16.9846C113.035 16.7296 112.42 16.5833 111.768 16.5833C109.268 16.5833 107.419 18.4835 107.419 21.004V31.4527H102.891V12.4536H107.419V14.7922Z" fill="#5C5C5C"/>
<path d="M119.376 23.6334C120.064 26.1181 122.238 27.7988 124.884 27.7988C126.731 27.7988 128.218 27.1412 129.305 25.7899L133.688 27.0681C131.949 30.1002 128.688 32.0001 124.884 32.0001C121.985 32.0001 119.558 31.0501 117.601 29.15C115.681 27.2141 114.702 24.8384 114.702 21.9525C114.702 19.0666 115.644 16.6908 117.529 14.7922C119.448 12.8563 121.804 11.9062 124.594 11.9062C127.383 11.9062 129.739 12.8563 131.624 14.7922C133.544 16.728 134.486 19.1038 134.486 21.9525C134.486 22.3537 134.45 22.9026 134.341 23.6334H119.376ZM129.81 20.0898C129.086 17.7154 126.984 16.1076 124.52 16.1076C122.056 16.1076 120.099 17.7154 119.411 20.0898H129.81Z" fill="#5C5C5C"/>
<path d="M137.274 12.4536H141.802V23.2679C141.802 25.7526 143.614 27.6526 146.078 27.6526C148.542 27.6526 150.354 25.7526 150.354 23.2679V12.4536H154.883V31.4513H150.354V29.15C148.977 31.0501 147.093 32.0001 144.701 32.0001C142.564 32.0001 140.788 31.3066 139.375 29.8808C137.963 28.4565 137.274 26.7026 137.274 24.5833V12.4536Z" fill="#5C5C5C"/>
<path d="M158.724 31.4513V12.4536H163.253V14.4625C164.557 12.7459 166.332 11.9048 168.543 11.9048C171.152 11.9048 173.145 12.9279 174.486 15.0099C175.826 12.9279 177.855 11.9048 180.501 11.9048C182.675 11.9048 184.45 12.5625 185.864 13.9137C187.277 15.265 188.001 16.9458 188.001 18.9562V31.4513H183.508V20.2716C183.508 17.9703 181.806 16.2523 179.595 16.2523C177.384 16.2523 175.646 17.9689 175.646 20.2716V31.4513H171.117V20.2716C171.117 17.9703 169.414 16.2523 167.203 16.2523C164.992 16.2523 163.254 17.9689 163.254 20.2716V31.4513H158.726H158.724Z" fill="#5C5C5C"/>
<path d="M18.0697 0L8.72509 14.6373H14.0383L13.6234 27.2914L12.4027 29.051L10.615 25.7166L0 5.90507H10.8907L18.0697 0Z" fill="url(#paint0_linear_65_1983)"/>
<path opacity="0.2" d="M14.0382 14.6372L13.6233 27.2913L12.4026 29.051L11.3667 27.118L14.0382 14.6372Z" fill="white"/>
<path d="M17.8778 5.90527L17.6547 12.6543H22.8812L12.4026 29.0513L13.9813 32.0002H16.0816L30.0631 5.90527H17.8778Z" fill="url(#paint1_linear_65_1983)"/>
</g>
</g>
<defs>
<linearGradient id="paint0_linear_65_1983" x1="5.54625" y1="-3.78721" x2="26.2136" y2="35.4724" gradientUnits="userSpaceOnUse">
<stop stop-color="#B721FF"/>
<stop offset="1" stop-color="#21D4FD"/>
</linearGradient>
<linearGradient id="paint1_linear_65_1983" x1="9.22091" y1="-5.72145" x2="29.8883" y2="33.5368" gradientUnits="userSpaceOnUse">
<stop stop-color="#B721FF"/>
<stop offset="1" stop-color="#21D4FD"/>
</linearGradient>
<clipPath id="clip0_65_1983">
<rect width="188" height="32" fill="white"/>
</clipPath>
</defs>
</svg>
